<?xml version="1.0" encoding="UTF-8" standalone="no"?>
<svg
        xmlns:dc="http://purl.org/dc/elements/1.1/"
        xmlns:cc="http://creativecommons.org/ns#"
        xmlns:rdf="http://www.w3.org/1999/02/22-rdf-syntax-ns#"
        xmlns:sodipodi="http://sodipodi.sourceforge.net/DTD/sodipodi-0.dtd"
        xmlns:inkscape="http://www.inkscape.org/namespaces/inkscape"
        xmlns="http://www.w3.org/2000/svg"
        data-v-fde0c5aa=""
        viewBox="0 0 220.00002 64.380524"
        class="iconLeftSlogan"
        version="1.1"
        id="svg23"
        sodipodi:docname="default-nomargin.svg"
        width="220.00002"
        height="64.380524"
        inkscape:version="1.0.1 (3bc2e813f5, 2020-09-07)">
  <metadata
          id="metadata27">
    <rdf:RDF>
      <cc:Work
              rdf:about="">
        <dc:format>image/svg+xml</dc:format>
        <dc:type
                rdf:resource="http://purl.org/dc/dcmitype/StillImage"/>
        <dc:title></dc:title>
      </cc:Work>
    </rdf:RDF>
  </metadata>
  <sodipodi:namedview
          pagecolor="#ffffff"
          bordercolor="#666666"
          borderopacity="1"
          objecttolerance="10"
          gridtolerance="10"
          guidetolerance="10"
          inkscape:pageopacity="0"
          inkscape:pageshadow="2"
          inkscape:window-width="1920"
          inkscape:window-height="1009"
          id="namedview25"
          showgrid="false"
          inkscape:zoom="2.8066667"
          inkscape:cx="110"
          inkscape:cy="32.190267"
          inkscape:window-x="1912"
          inkscape:window-y="-8"
          inkscape:window-maximized="1"
          inkscape:current-layer="svg23"/>
  <!---->
  <defs
          data-v-fde0c5aa=""
          id="defs2">
    <!---->
  </defs>
  <defs
          data-v-fde0c5aa=""
          id="defs6">
    <!---->
  </defs>
  <g
          data-v-fde0c5aa=""
          id="37da73f9-7ca4-4e0c-9367-df2cf28f1fc1"
          fill="#90caf9"
          transform="matrix(2.149702,0,0,2.149702,91.641304,-7.2606533)">
    <path
            d="m 6.26,7.87 v 0 q 0.94,0 1.51,0.5 v 0 0 Q 8.34,8.88 8.34,9.7 v 0 0 q 0,0.67 -0.37,1.35 v 0 0 q -0.38,0.68 -1.02,1.2 v 0 0 q -0.64,0.52 -1.41,0.73 v 0 L 5.33,12.61 v 0 q 0.61,-0.28 0.98,-0.86 v 0 0 Q 6.68,11.17 6.68,10.5 v 0 0 q 0,-0.8 -0.44,-1.28 v 0 0 Q 5.81,8.74 5.11,8.74 v 0 0 q -0.74,0 -1.39,0.59 v 0 0 q -0.65,0.6 -1.04,1.6 v 0 0 q -0.38,1 -0.38,2.15 v 0 0 q 0,1.17 0.36,2.08 v 0 0 q 0.36,0.9 1.02,1.4 v 0 0 q 0.65,0.51 1.49,0.51 v 0 0 q 0.6,0 1.21,-0.3 v 0 0 q 0.61,-0.31 1.18,-0.88 v 0 l 0.38,0.35 v 0 q -0.66,0.85 -1.63,1.42 v 0 0 q -0.98,0.57 -2.04,0.57 v 0 0 q -1.15,0 -2.01,-0.53 v 0 0 Q 1.4,17.16 0.94,16.22 v 0 0 Q 0.48,15.27 0.48,14.06 v 0 0 q 0,-1.71 0.77,-3.13 v 0 0 Q 2.03,9.51 3.35,8.69 v 0 0 Q 4.68,7.87 6.26,7.87 Z m 6.87,1.68 v 0 Q 12.87,9.9 12.74,10.2 v 0 0 q -0.13,0.3 -0.13,0.71 v 0 1.98 h 0.94 v 0 q 1.22,0 1.98,-0.57 v 0 l 0.23,0.25 v 0 q -0.79,1.23 -2.57,1.23 v 0 h -0.58 v 2.66 0 q 0,0.98 -0.44,1.68 v 0 0 q -0.44,0.69 -1.35,1.26 v 0 l -0.29,-0.33 v 0 q 0.35,-0.38 0.35,-1.36 v 0 -3.91 H 9.6 l 0.7,-0.91 h 0.58 v -1.17 0 q 0,-1.01 1.31,-2.17 v 0 L 10.28,9.53 v 0 q -0.9,0 -1.63,0.86 v 0 l -0.29,-0.3 v 0 Q 9,9.23 9.7,8.72 v 0 0 q 0.69,-0.5 1.58,-0.5 v 0 h 3.35 v 0 q 0.67,0 1.36,-0.12 v 0 0 q 0.68,-0.12 1.05,-0.43 v 0 l 0.21,0.25 v 0 Q 16.8,8.61 16.02,9.08 v 0 0 q -0.79,0.47 -1.73,0.47 v 0 z M 22.27,7.9 v 0 q 1.4,0 2.27,0.76 v 0 0 q 0.86,0.76 0.86,2.11 v 0 0 q 0,1.16 -0.79,2.15 v 0 0 q -0.78,0.98 -2.04,1.56 v 0 0 q -1.25,0.58 -2.56,0.58 v 0 0 q -0.16,0 -0.28,-0.01 v 0 l 0.07,-0.39 v 0 q 0.95,-0.13 1.83,-0.61 v 0 0 q 0.88,-0.48 1.43,-1.26 v 0 0 q 0.56,-0.78 0.56,-1.76 v 0 0 q 0,-1.02 -0.58,-1.62 v 0 0 q -0.58,-0.6 -1.76,-0.6 v 0 0 q -0.98,0 -2.01,0.46 v 0 0 q -1.03,0.46 -1.87,1.2 v 0 l -0.36,-0.39 v 0 q 1.05,-0.97 2.39,-1.57 v 0 0 Q 20.78,7.9 22.27,7.9 Z m -2.6,1.96 v 7.91 l -1.69,0.57 v -7.91 z m 8.62,-4.72 v 11.66 0 q 0,0.18 0.09,0.32 v 0 0 q 0.1,0.14 0.29,0.14 v 0 0 q 0.2,0 0.4,-0.15 v 0 0 q 0.2,-0.16 0.33,-0.34 v 0 l 0.25,0.27 v 0 q -0.24,0.47 -0.69,0.81 v 0 0 q -0.46,0.34 -0.97,0.34 v 0 0 q -1.36,0 -1.36,-1.47 v 0 -10.98 z m 6.01,5.95 v 0 q 0.74,0 1.38,0.29 v 0 0 q 0.64,0.3 0.94,0.91 v 0 l -1.35,0.56 v 0 q -0.2,-0.36 -0.55,-0.6 v 0 0 q -0.35,-0.24 -0.74,-0.24 v 0 0 q -0.94,0 -1.49,0.79 v 0 0 q -0.54,0.78 -0.54,1.96 v 0 0 q 0,1.07 0.32,1.77 v 0 0 q 0.32,0.69 1.02,0.69 v 0 0 q 0.98,0 1.35,-0.92 v 0 0 Q 35,15.39 35,14.31 v 0 -0.62 l 1.64,-0.59 v 3.64 0 q 0,0.2 0.09,0.35 v 0 0 q 0.09,0.14 0.27,0.14 v 0 0 q 0.35,0 0.72,-0.49 v 0 l 0.26,0.27 v 0 q -0.21,0.49 -0.66,0.83 v 0 0 q -0.46,0.35 -0.98,0.35 v 0 0 q -0.67,0 -0.98,-0.46 v 0 0 q -0.3,-0.45 -0.3,-1.17 v 0 H 35 v 0 q -0.34,0.76 -0.9,1.23 v 0 0 q -0.56,0.47 -1.3,0.47 v 0 0 q -1.12,0 -1.73,-0.82 v 0 0 Q 30.46,16.62 30.46,15.3 v 0 0 q 0,-1.12 0.49,-2.08 v 0 0 q 0.48,-0.97 1.35,-1.55 v 0 0 q 0.88,-0.58 2,-0.58 z m 10.81,-0.18 v 6.41 0 q 0,1.26 -0.59,2.41 v 0 0 q -0.59,1.14 -1.55,1.84 v 0 0 Q 42,22.26 40.95,22.26 v 0 0 q -0.38,0 -0.71,-0.11 v 0 0 q -0.34,-0.11 -0.7,-0.37 v 0 l 1.03,-1.3 v 0 q 0.32,0.31 0.72,0.48 v 0 0 q 0.39,0.18 0.7,0.18 v 0 0 q 0.67,0 1.06,-0.97 v 0 0 q 0.39,-0.98 0.39,-2.67 v 0 0 q 0,-2.48 0.06,-3.65 v 0 h -0.09 v 0 q -0.98,4.41 -2.81,4.41 v 0 0 q -0.42,0 -0.65,-0.17 v 0 0 q -0.23,-0.17 -0.32,-0.58 v 0 0 q -0.09,-0.42 -0.09,-1.19 v 0 -3.89 0 q 0,-0.24 -0.1,-0.37 v 0 0 q -0.1,-0.13 -0.27,-0.13 v 0 0 q -0.17,0 -0.36,0.12 v 0 0 q -0.18,0.13 -0.35,0.38 v 0 l -0.25,-0.26 v 0 q 0.32,-0.66 0.69,-0.93 v 0 0 q 0.37,-0.28 0.96,-0.28 v 0 0 q 0.64,0 0.99,0.39 v 0 0 q 0.35,0.38 0.35,1.08 v 0 3.75 0 q 0,0.24 0.07,0.37 v 0 0 q 0.07,0.12 0.18,0.12 v 0 0 q 0.34,0 0.79,-0.88 v 0 0 q 0.46,-0.88 0.79,-2.11 v 0 0 q 0.33,-1.23 0.33,-2.19 v 0 z m 5.77,0.05 v 0 q 0.81,0 1.35,0.42 v 0 0 q 0.55,0.41 0.55,1.19 v 0 0 q 0,0.63 -0.68,1.41 v 0 0 q -0.68,0.78 -1.61,1.44 v 0 0 q -0.93,0.67 -1.59,0.96 v 0 0 q 0.59,0.94 1.72,0.94 v 0 0 q 0.63,0 1.27,-0.36 v 0 0 q 0.64,-0.36 1.09,-0.94 v 0 l 0.28,0.33 v 0 q -0.73,0.91 -1.54,1.41 v 0 0 q -0.8,0.5 -1.91,0.5 v 0 0 q -0.89,0 -1.6,-0.41 v 0 0 Q 47.5,17.44 47.1,16.74 v 0 0 q -0.4,-0.71 -0.4,-1.59 v 0 0 q 0,-1.07 0.58,-2.04 v 0 0 q 0.59,-0.97 1.55,-1.56 v 0 0 q 0.97,-0.59 2.05,-0.59 z m -0.8,0.91 v 0 q -0.53,0 -0.95,0.39 v 0 0 q -0.42,0.38 -0.66,0.98 v 0 0 q -0.24,0.61 -0.24,1.25 v 0 0 q 0,0.84 0.36,1.44 v 0 0 q 0.52,-0.29 1.1,-0.82 v 0 0 q 0.58,-0.52 0.98,-1.12 v 0 0 q 0.39,-0.61 0.39,-1.1 v 0 0 q 0,-0.49 -0.26,-0.75 v 0 0 q -0.26,-0.27 -0.72,-0.27 z m 7.31,1.11 v 0 q -0.59,0.66 -1.02,1.64 v 0 0 q -0.43,0.99 -0.43,1.8 v 0 0 q 0,0.79 0.42,1.3 v 0 0 q 0.42,0.51 1.19,0.51 v 0 0 q 0.62,0 1.19,-0.31 v 0 0 q 0.56,-0.31 0.97,-0.83 v 0 L 59.5,16.84 v 0 q -0.48,0.31 -0.9,0.31 v 0 0 q -0.63,0 -0.96,-0.43 v 0 0 q -0.32,-0.44 -0.32,-1.08 v 0 0 q 0,-1.05 0.57,-2.09 v 0 0 q 0.57,-1.03 1.39,-1.79 v 0 l -0.26,-0.27 v 0 q -0.93,0.62 -1.79,0.62 v 0 0 q -0.54,0 -0.99,-0.43 v 0 0 q -0.44,-0.42 -0.59,-1 v 0 l -1.34,1.51 v 0 q 0.05,0.2 0.28,0.4 v 0 0 q 0.22,0.19 0.26,0.23 v 0 l -0.94,1.94 0.58,0.25 0.91,-1.95 v 0 q 0.36,0.14 0.8,0.14 v 0 0 q 0.67,0 1.14,-0.28 v 0 z"
            id="path8"/>
  </g>
  <defs
          data-v-fde0c5aa=""
          id="defs11">
    <!---->
  </defs>
  <g
          data-v-fde0c5aa=""
          id="5384ec2d-5437-45f3-b1e1-6a5cc3cf8194"
          stroke="none"
          fill="#90caf9"
          transform="matrix(0.17767252,0,0,0.17767252,-5.6476764,-13.293813)">
    <path
            d="m 480.214,260.561 c 0,-28.229 -13.894,-51.971 -37.48,-64.654 0.587,-3.423 0.881,-6.727 0.881,-9.985 0,-38.801 -34.69,-70.362 -77.309,-70.362 -3.157,0 -6.332,0.174 -9.471,0.532 -11.343,-24.925 -36.25,-41.27 -63.8,-41.27 -13.913,0 -27.467,4.24 -39.233,12.261 -11.949,-6.488 -25.467,-9.893 -39.398,-9.893 -29.275,0 -55.697,14.904 -68.829,38.388 a 33.102,33.102 0 0 0 -0.954,-0.018 c -42.628,0 -77.309,31.561 -77.309,70.362 0,5.543 0.808,11.095 2.469,16.84 -23.604,13.426 -37.994,37.416 -37.994,64.039 0,40.723 33.952,73.811 75.932,74.541 v 52.977 c 0,23.622 19.217,42.858 42.849,42.858 h 219.887 c 23.641,0 42.876,-19.236 42.876,-42.858 v -54.218 c 16.068,-1.632 30.81,-7.856 42.527,-19.383 15.472,-15.234 24.356,-37.168 24.356,-60.157 z M 370.454,422.126 H 150.567 c -15.335,0 -27.816,-12.463 -27.816,-27.807 V 273.574 c 0,-15.344 12.481,-27.825 27.816,-27.825 h 219.887 c 15.344,0 27.825,12.481 27.825,27.825 v 57.659 c -0.185,0.629 -0.41,1.244 -0.422,1.928 -0.01,0.801 0.203,1.535 0.422,2.261 v 58.896 c 0,15.346 -12.481,27.808 -27.825,27.808 z m 42.876,-96.98 v -51.572 c 0,-23.631 -19.236,-42.858 -42.876,-42.858 H 150.567 c -23.631,0 -42.849,19.226 -42.849,42.858 v 52.719 c -33.692,-0.72 -60.9,-27.06 -60.9,-59.491 0,-22.897 13.527,-43.399 35.314,-53.503 a 7.52,7.52 0 0 0 3.845,-9.535 c -2.441,-6.305 -3.634,-12.141 -3.634,-17.841 0,-30.505 27.936,-55.33 62.277,-55.33 0.789,0 1.551,0.119 2.322,0.211 l 2.46,0.257 c 3.267,0.285 6.066,-1.514 7.369,-4.359 9.627,-20.942 32.249,-34.479 57.633,-34.479 12.857,0 25.256,3.533 35.855,10.205 a 7.498,7.498 0 0 0 8.663,-0.459 c 0.89,-0.697 1.79,-1.377 2.707,-2.019 0.018,0 0.028,-0.009 0.037,-0.018 9.407,-6.589 20.245,-10.077 31.368,-10.077 23.273,0 44.161,14.885 51.962,37.039 1.211,3.506 4.772,5.58 8.48,4.891 a 69.686,69.686 0 0 1 12.83,-1.193 c 34.341,0 62.258,24.824 62.258,55.33 0,3.845 -0.551,7.874 -1.689,12.298 a 7.519,7.519 0 0 0 4.277,8.755 c 21.291,9.324 34.011,29.358 34.011,53.586 0,18.712 -7.415,37.195 -19.86,49.438 -8.846,8.708 -19.838,13.713 -31.973,15.147 z"
            id="path13"/>
    <path
            d="m 237.035,272.427 c -2.23,-1.835 -5.35,-2.212 -7.984,-0.973 a 7.51,7.51 0 0 0 -4.295,6.791 v 111.412 a 7.492,7.492 0 0 0 4.231,6.754 7.436,7.436 0 0 0 3.285,0.771 7.502,7.502 0 0 0 4.644,-1.615 l 69.444,-54.513 a 7.538,7.538 0 0 0 2.882,-5.837 7.552,7.552 0 0 0 -2.753,-5.892 z m 2.753,101.776 v -80.081 l 49.906,40.894 z"
            id="path15"/>
  </g>
  <defs
          data-v-fde0c5aa=""
          id="defs18">
    <!---->
  </defs>
  <g
          data-v-fde0c5aa=""
          id="3de11ffe-3827-4e1d-99ab-63b665c6e27d"
          fill="#90caf9"
          transform="matrix(0.59035075,0,0,0.59035075,92.366174,48.448747)">
    <path
            d="M 8.43,12.21 C 8.4,12.18 8.36,12.15 8.32,12.15 c -0.03,0 -0.05,0 -0.07,0.02 -0.02,0.01 -0.05,0.04 -0.07,0.05 -0.2,0.18 -0.41,0.34 -0.61,0.48 -0.19,0.14 -0.4,0.24 -0.64,0.33 -0.24,0.1 -0.49,0.17 -0.77,0.21 -0.28,0.05 -0.59,0.07 -0.94,0.07 -0.56,0 -1.1,-0.09 -1.58,-0.3 C 3.15,12.81 2.74,12.52 2.39,12.14 2.04,11.76 1.75,11.28 1.55,10.74 1.36,10.19 1.26,9.56 1.26,8.86 1.26,8.18 1.36,7.56 1.55,7.01 1.76,6.47 2.04,6.01 2.41,5.61 2.77,5.24 3.21,4.94 3.71,4.73 4.21,4.52 4.76,4.42 5.36,4.42 6.26,4.42 7.08,4.56 7.81,4.89 7.85,5.78 7.9,6.3 7.9,6.41 7.91,6.64 7.99,6.75 8.19,6.75 H 8.53 V 4.51 C 7.35,4.03 6.29,3.81 5.36,3.81 4.65,3.81 4,3.92 3.4,4.17 2.81,4.42 2.28,4.76 1.86,5.21 1.43,5.66 1.11,6.19 0.87,6.8 0.63,7.42 0.52,8.11 0.52,8.86 c 0,0.77 0.12,1.46 0.35,2.09 0.22,0.63 0.54,1.15 0.95,1.59 0.41,0.45 0.9,0.79 1.47,1.03 0.57,0.23 1.19,0.36 1.88,0.36 0.4,0 0.78,-0.03 1.13,-0.1 C 6.64,13.76 6.96,13.66 7.25,13.54 7.53,13.41 7.8,13.26 8.04,13.09 8.27,12.91 8.5,12.73 8.71,12.5 Z M 21.24,6.8 C 21.06,6.76 20.87,6.73 20.66,6.73 c -0.54,0 -1,0.16 -1.38,0.48 -0.38,0.32 -0.67,0.77 -0.9,1.33 L 18.33,7.07 C 18.33,6.99 18.3,6.93 18.27,6.9 18.24,6.87 18.19,6.86 18.1,6.86 h -0.35 v 0 h -1.01 v 0.27 c 0,0.18 0.1,0.23 0.27,0.25 0.08,0 0.17,0 0.74,0.03 v 5.85 c -0.57,0.03 -0.66,0.03 -0.74,0.03 -0.17,0.01 -0.27,0.07 -0.27,0.25 v 0.28 h 1.01 0.66 v 0 h 1.01 v -0.28 c 0,-0.18 -0.1,-0.24 -0.27,-0.25 -0.08,0 -0.17,0 -0.74,-0.03 V 9.3 c 0.21,-0.62 0.49,-1.1 0.83,-1.42 0.33,-0.32 0.77,-0.49 1.3,-0.49 0.14,0 0.26,0.02 0.38,0.03 0.11,0.01 0.22,0.03 0.29,0.06 0.08,0.02 0.13,0.05 0.18,0.07 0.06,0.01 0.1,0.02 0.13,0.02 0.08,0 0.12,-0.04 0.14,-0.11 L 21.74,7 C 21.59,6.92 21.42,6.85 21.24,6.8 Z m 13.97,6.49 h -0.1 -0.22 c -0.1,0 -0.21,-0.02 -0.32,-0.02 V 9.28 C 34.57,8.89 34.52,8.55 34.43,8.23 34.33,7.91 34.19,7.64 34.01,7.42 33.82,7.2 33.59,7.03 33.31,6.92 33.03,6.79 32.7,6.73 32.33,6.73 c -0.51,0 -0.96,0.1 -1.36,0.28 -0.41,0.19 -0.79,0.47 -1.15,0.83 l 0.11,0.21 c 0.04,0.08 0.11,0.13 0.21,0.13 0.07,0 0.17,-0.06 0.27,-0.16 0.1,-0.1 0.24,-0.18 0.4,-0.29 0.17,-0.11 0.35,-0.21 0.59,-0.31 0.24,-0.1 0.52,-0.14 0.86,-0.14 0.54,0 0.96,0.17 1.24,0.52 0.28,0.35 0.41,0.84 0.41,1.48 v 0.73 c -0.79,0.01 -1.46,0.08 -2.02,0.2 -0.56,0.11 -1.02,0.26 -1.38,0.44 -0.37,0.19 -0.62,0.41 -0.79,0.66 -0.17,0.25 -0.25,0.52 -0.25,0.81 0,0.33 0.06,0.61 0.15,0.83 0.12,0.22 0.26,0.41 0.42,0.55 0.17,0.14 0.38,0.25 0.61,0.32 0.22,0.07 0.44,0.11 0.68,0.11 0.28,0 0.55,-0.03 0.79,-0.08 0.23,-0.06 0.44,-0.14 0.65,-0.24 0.21,-0.1 0.41,-0.23 0.61,-0.38 0.18,-0.15 0.36,-0.32 0.56,-0.5 l 0.09,0.89 c 0.03,0.13 0.13,0.2 0.27,0.2 h 0.01 0.26 0.92 v -0.28 c 0,-0.16 -0.1,-0.24 -0.28,-0.25 z m -1.3,-1.03 c -0.17,0.17 -0.32,0.34 -0.49,0.48 -0.17,0.14 -0.35,0.27 -0.55,0.38 -0.19,0.11 -0.4,0.18 -0.63,0.24 -0.22,0.05 -0.47,0.08 -0.74,0.08 -0.18,0 -0.36,-0.01 -0.53,-0.07 -0.17,-0.06 -0.31,-0.13 -0.44,-0.24 -0.12,-0.11 -0.23,-0.25 -0.3,-0.42 -0.09,-0.17 -0.12,-0.36 -0.12,-0.6 0,-0.25 0.07,-0.48 0.23,-0.67 0.15,-0.2 0.38,-0.35 0.68,-0.49 0.31,-0.14 0.7,-0.25 1.18,-0.34 0.48,-0.08 1.05,-0.14 1.71,-0.15 z m 19.91,-5.4 h -0.49 -1.36 v 0.27 c 0,0.15 0.1,0.23 0.28,0.25 h 0.07 c 0.03,0 0.05,0.01 0.1,0.01 h 0.21 c 0.09,0 0.21,0.02 0.33,0.02 l -1.64,5.11 c -0.04,0.11 -0.05,0.21 -0.08,0.3 -0.03,0.1 -0.04,0.2 -0.06,0.3 -0.04,-0.2 -0.09,-0.39 -0.16,-0.6 L 49.17,6.97 c -0.03,-0.1 -0.1,-0.15 -0.2,-0.15 h -0.28 c -0.1,0 -0.17,0.05 -0.19,0.15 l -1.87,5.55 c -0.04,0.11 -0.07,0.21 -0.09,0.3 l -0.09,0.3 c 0,-0.03 -0.03,-0.13 -0.05,-0.3 -0.02,-0.09 -0.05,-0.19 -0.07,-0.3 L 44.69,7.41 c 0.15,0 0.31,-0.02 0.42,-0.02 0.11,0 0.19,-0.01 0.22,-0.01 h 0.09 C 45.6,7.36 45.7,7.28 45.7,7.13 V 6.86 L 44.32,6.85 43.81,6.86 h -0.55 v 0.27 c 0,0.15 0.08,0.23 0.27,0.25 h 0.07 0.07 c 0.02,0 0.07,0.01 0.12,0.01 h 0.2 l 2.15,6.43 h 0.47 c 0.08,0 0.14,-0.06 0.16,-0.16 l 1.94,-5.65 c 0.02,-0.07 0.05,-0.13 0.07,-0.2 l 0.04,-0.21 0.04,0.21 c 0.01,0.07 0.04,0.13 0.07,0.2 l 1.9,5.65 c 0.03,0.1 0.1,0.16 0.17,0.16 h 0.49 l 2.14,-6.43 h 0.27 c 0.08,0 0.13,-0.01 0.15,-0.01 h 0.07 C 54.31,7.36 54.4,7.28 54.4,7.13 V 6.86 Z M 69.58,3.92 h -0.35 -5.59 -1.19 v 0.27 c 0,0.15 0.1,0.23 0.28,0.25 h 0.14 c 0.07,0 0.17,0.01 0.31,0.01 0.14,0 0.3,0.02 0.46,0.02 v 8.79 c -0.16,0 -0.32,0.01 -0.46,0.01 -0.14,0 -0.24,0.02 -0.31,0.02 h -0.14 c -0.18,0.01 -0.28,0.09 -0.28,0.25 v 0.28 h 1.19 0.72 1.17 v -0.28 c 0,-0.16 -0.08,-0.24 -0.26,-0.25 h -0.14 c -0.07,0 -0.17,-0.02 -0.31,-0.02 -0.14,0 -0.29,-0.01 -0.46,-0.01 V 9.27 h 3.69 V 8.67 H 64.36 V 4.51 h 4.6 c 0.03,0.67 0.06,1.05 0.06,1.12 0.01,0.22 0.11,0.33 0.31,0.33 h 0.33 V 3.92 Z m 9.11,0.97 c 0.06,0.05 0.13,0.09 0.2,0.12 0.07,0.03 0.15,0.06 0.24,0.06 0.08,0 0.17,-0.03 0.24,-0.06 C 79.44,4.98 79.51,4.94 79.56,4.89 79.62,4.83 79.67,4.76 79.7,4.69 79.73,4.62 79.76,4.54 79.76,4.45 79.76,4.37 79.73,4.3 79.7,4.21 79.67,4.14 79.62,4.07 79.56,4.02 79.51,3.96 79.44,3.91 79.37,3.88 79.3,3.85 79.21,3.84 79.13,3.84 c -0.09,0 -0.17,0.01 -0.24,0.04 -0.07,0.03 -0.14,0.08 -0.2,0.14 -0.05,0.05 -0.09,0.12 -0.12,0.19 -0.03,0.07 -0.06,0.16 -0.06,0.24 0,0.09 0.03,0.17 0.06,0.24 0.03,0.07 0.07,0.14 0.12,0.2 z m 1.5,8.4 h -0.07 -0.11 c -0.04,0 -0.11,-0.02 -0.21,-0.02 -0.1,0 -0.21,-0.01 -0.34,-0.01 V 6.85 h -0.67 -1.01 v 0.28 c 0,0.15 0.1,0.23 0.28,0.25 h 0.07 c 0.03,0 0.07,0.01 0.12,0.01 h 0.21 c 0.09,0 0.21,0.02 0.33,0.02 v 5.85 c -0.15,0 -0.29,0.03 -0.4,0.03 h -0.24 -0.09 c -0.18,0.01 -0.28,0.09 -0.28,0.25 v 0.28 h 1.01 0.67 1.01 v -0.28 c 0,-0.16 -0.1,-0.24 -0.28,-0.25 z M 93.28,11.06 C 93.17,10.86 93.03,10.71 92.85,10.57 92.67,10.43 92.46,10.32 92.23,10.23 92.01,10.15 91.76,10.05 91.52,9.98 91.28,9.91 91.04,9.83 90.8,9.76 90.58,9.69 90.37,9.59 90.19,9.49 90.01,9.39 89.87,9.27 89.75,9.13 89.64,8.99 89.59,8.81 89.59,8.58 c 0,-0.18 0.02,-0.35 0.11,-0.5 0.08,-0.16 0.19,-0.31 0.35,-0.44 0.14,-0.12 0.32,-0.21 0.53,-0.28 0.21,-0.07 0.43,-0.11 0.69,-0.11 0.36,0 0.72,0.06 1.1,0.18 0.02,0.17 0.03,0.34 0.04,0.49 0.02,0.16 0.02,0.27 0.03,0.35 0.02,0.09 0.02,0.16 0.02,0.17 0.01,0.23 0.11,0.34 0.3,0.34 H 93.1 V 7.11 C 92.37,6.86 91.76,6.75 91.25,6.75 90.9,6.75 90.58,6.8 90.3,6.9 90.02,7 89.77,7.14 89.57,7.31 89.38,7.48 89.22,7.69 89.11,7.91 89,8.13 88.96,8.37 88.96,8.62 c 0,0.3 0.05,0.54 0.16,0.73 0.12,0.2 0.26,0.35 0.44,0.49 0.18,0.14 0.38,0.25 0.61,0.34 0.23,0.08 0.47,0.17 0.72,0.24 0.24,0.07 0.47,0.15 0.71,0.22 0.23,0.07 0.44,0.17 0.62,0.28 0.18,0.11 0.33,0.24 0.45,0.39 0.11,0.16 0.16,0.34 0.16,0.58 0,0.21 -0.04,0.4 -0.11,0.6 -0.08,0.19 -0.19,0.35 -0.35,0.49 -0.15,0.14 -0.33,0.25 -0.56,0.33 -0.22,0.09 -0.47,0.13 -0.77,0.13 -0.53,0 -0.98,-0.07 -1.36,-0.22 C 89.67,13.03 89.66,12.87 89.64,12.71 89.63,12.56 89.63,12.43 89.61,12.35 89.6,12.26 89.6,12.19 89.6,12.18 89.59,11.96 89.49,11.84 89.29,11.84 h -0.33 v 1.7 c 0.67,0.25 1.35,0.39 2.05,0.39 0.4,0 0.73,-0.06 1.04,-0.17 0.31,-0.11 0.56,-0.26 0.77,-0.46 0.21,-0.2 0.36,-0.41 0.48,-0.67 0.11,-0.27 0.16,-0.55 0.16,-0.86 0,-0.28 -0.07,-0.51 -0.18,-0.71 z m 15.64,2.23 h -0.08 -0.1 c -0.04,0 -0.11,-0.02 -0.21,-0.02 -0.1,0 -0.23,-0.01 -0.35,-0.01 V 9.37 c 0,-0.41 -0.04,-0.77 -0.14,-1.1 -0.1,-0.32 -0.24,-0.6 -0.44,-0.82 -0.19,-0.23 -0.43,-0.39 -0.72,-0.52 -0.3,-0.13 -0.63,-0.18 -1.01,-0.18 -0.52,0 -0.98,0.11 -1.4,0.35 -0.41,0.24 -0.77,0.56 -1.09,0.95 V 3.64 h -0.68 -1 v 0.27 c 0,0.15 0.09,0.23 0.28,0.25 h 0.07 c 0.02,0 0.07,0.01 0.11,0.01 h 0.21 c 0.1,0 0.21,0.02 0.33,0.02 v 9.07 c -0.15,0 -0.29,0.03 -0.4,0.03 h -0.24 -0.08 c -0.19,0.01 -0.28,0.09 -0.28,0.25 v 0.28 h 1 0.68 1 v -0.28 c 0,-0.16 -0.09,-0.24 -0.28,-0.25 h -0.07 -0.11 c -0.04,0 -0.11,-0.02 -0.21,-0.02 -0.1,0 -0.21,-0.01 -0.33,-0.01 V 8.6 c 0.3,-0.41 0.65,-0.73 1.05,-0.97 0.39,-0.24 0.81,-0.35 1.27,-0.35 0.62,0 1.08,0.18 1.37,0.55 0.3,0.37 0.45,0.88 0.45,1.54 v 4.45 h 0.66 1.01 v -0.28 c 0,-0.16 -0.09,-0.24 -0.27,-0.25 z m 25.49,0.25 c 0,-0.16 -0.08,-0.24 -0.26,-0.25 h -0.07 -0.1 c -0.04,0 -0.11,-0.02 -0.2,-0.02 h -0.3 V 3.63 h -0.66 -1.01 v 0.28 c 0,0.15 0.1,0.23 0.28,0.25 h 0.07 c 0.03,0 0.06,0.01 0.1,0.01 h 0.22 c 0.1,0 0.21,0.02 0.34,0.02 v 3.57 c -0.25,-0.34 -0.55,-0.59 -0.9,-0.76 -0.35,-0.18 -0.75,-0.27 -1.23,-0.27 -0.49,0 -0.92,0.1 -1.3,0.28 -0.38,0.19 -0.69,0.45 -0.95,0.77 -0.27,0.33 -0.45,0.72 -0.59,1.15 -0.14,0.44 -0.2,0.91 -0.2,1.42 0,1.19 0.24,2.08 0.72,2.67 0.47,0.59 1.14,0.88 2,0.88 0.52,0 0.98,-0.11 1.4,-0.36 0.42,-0.25 0.77,-0.59 1.08,-1.01 l 0.07,1.11 c 0.01,0.12 0.08,0.18 0.19,0.18 h 0.37 0.93 v -0.21 z m -1.59,-1.53 c -0.3,0.42 -0.63,0.76 -1.01,1 -0.38,0.23 -0.78,0.36 -1.25,0.36 -0.71,0 -1.27,-0.24 -1.65,-0.73 -0.38,-0.49 -0.57,-1.26 -0.57,-2.29 0,-0.47 0.04,-0.87 0.15,-1.25 0.11,-0.38 0.27,-0.71 0.48,-0.98 0.21,-0.27 0.46,-0.49 0.77,-0.64 0.31,-0.16 0.67,-0.23 1.08,-0.23 0.4,0 0.78,0.09 1.1,0.25 0.32,0.17 0.63,0.45 0.9,0.84 z m 12.82,-5.28 c -0.49,0 -0.94,0.1 -1.33,0.27 -0.39,0.17 -0.71,0.41 -0.98,0.71 -0.26,0.31 -0.47,0.68 -0.61,1.1 -0.14,0.42 -0.23,0.88 -0.23,1.38 0,0.59 0.09,1.12 0.24,1.58 0.15,0.47 0.36,0.84 0.64,1.17 0.28,0.32 0.62,0.56 1.01,0.72 0.39,0.17 0.83,0.24 1.3,0.24 0.27,0 0.54,-0.01 0.79,-0.07 0.25,-0.05 0.5,-0.12 0.73,-0.21 0.22,-0.08 0.43,-0.18 0.61,-0.31 0.18,-0.12 0.34,-0.25 0.45,-0.39 l -0.18,-0.22 c -0.03,-0.04 -0.09,-0.07 -0.14,-0.07 -0.04,0 -0.13,0.03 -0.23,0.11 -0.09,0.08 -0.23,0.17 -0.42,0.27 -0.16,0.09 -0.39,0.16 -0.64,0.25 -0.25,0.08 -0.56,0.12 -0.91,0.12 -0.39,0 -0.74,-0.07 -1.06,-0.21 -0.33,-0.14 -0.59,-0.33 -0.82,-0.6 -0.22,-0.26 -0.39,-0.6 -0.51,-0.99 -0.13,-0.39 -0.19,-0.87 -0.19,-1.39 v -0.12 h 5.03 c 0.07,0 0.11,-0.02 0.14,-0.06 0.03,-0.04 0.06,-0.11 0.06,-0.21 0,-0.49 -0.07,-0.92 -0.21,-1.3 -0.14,-0.38 -0.33,-0.72 -0.58,-0.97 -0.24,-0.25 -0.53,-0.45 -0.87,-0.59 -0.33,-0.14 -0.7,-0.21 -1.09,-0.21 z m 0.02,0.51 c 0.32,0 0.6,0.05 0.86,0.17 0.27,0.11 0.49,0.26 0.68,0.47 0.18,0.21 0.33,0.45 0.43,0.74 0.1,0.3 0.15,0.63 0.15,1.01 h -4.59 c 0.04,-0.36 0.13,-0.7 0.25,-0.99 0.13,-0.3 0.3,-0.55 0.51,-0.76 0.21,-0.21 0.46,-0.36 0.74,-0.47 0.28,-0.12 0.6,-0.17 0.97,-0.17 z M 161.14,6.8 c -0.18,-0.04 -0.36,-0.07 -0.57,-0.07 -0.55,0 -1.01,0.16 -1.39,0.48 -0.38,0.32 -0.67,0.77 -0.9,1.33 L 158.23,7.07 C 158.23,6.99 158.2,6.93 158.17,6.9 158.14,6.87 158.09,6.86 158,6.86 h -0.35 v 0 h -1 v 0.27 c 0,0.18 0.09,0.23 0.26,0.25 0.09,0 0.17,0 0.74,0.03 v 5.85 c -0.57,0.03 -0.65,0.03 -0.74,0.03 -0.17,0.01 -0.26,0.07 -0.26,0.25 v 0.28 h 1 0.66 v 0 h 1.01 v -0.28 c 0,-0.18 -0.1,-0.24 -0.27,-0.25 -0.08,0 -0.16,0 -0.74,-0.03 V 9.3 c 0.21,-0.62 0.49,-1.1 0.83,-1.42 0.33,-0.32 0.77,-0.49 1.3,-0.49 0.14,0 0.27,0.02 0.38,0.03 0.11,0.01 0.22,0.03 0.29,0.06 0.09,0.02 0.13,0.05 0.18,0.07 0.06,0.01 0.1,0.02 0.13,0.02 0.08,0 0.13,-0.04 0.14,-0.11 L 161.64,7 c -0.15,-0.08 -0.32,-0.15 -0.5,-0.2 z m 9.49,-1.91 c 0.06,0.05 0.13,0.09 0.2,0.12 0.07,0.03 0.15,0.06 0.24,0.06 0.08,0 0.16,-0.03 0.23,-0.06 0.07,-0.03 0.14,-0.07 0.2,-0.12 0.06,-0.06 0.11,-0.13 0.14,-0.2 0.03,-0.07 0.06,-0.15 0.06,-0.24 0,-0.08 -0.03,-0.15 -0.06,-0.24 -0.03,-0.07 -0.08,-0.14 -0.14,-0.19 -0.06,-0.06 -0.13,-0.11 -0.2,-0.14 -0.07,-0.03 -0.15,-0.04 -0.23,-0.04 -0.09,0 -0.17,0.01 -0.24,0.04 -0.07,0.03 -0.14,0.08 -0.2,0.14 -0.05,0.05 -0.1,0.12 -0.12,0.19 -0.03,0.07 -0.06,0.16 -0.06,0.24 0,0.09 0.03,0.17 0.06,0.24 0.02,0.07 0.07,0.14 0.12,0.2 z m 1.5,8.4 h -0.07 -0.11 c -0.04,0 -0.11,-0.02 -0.21,-0.02 -0.1,0 -0.21,-0.01 -0.34,-0.01 V 6.85 h -0.67 -1.01 v 0.28 c 0,0.15 0.1,0.23 0.28,0.25 h 0.07 c 0.03,0 0.07,0.01 0.11,0.01 h 0.21 c 0.1,0 0.21,0.02 0.34,0.02 v 5.85 c -0.15,0 -0.29,0.03 -0.41,0.03 H 170.09 170 c -0.18,0.01 -0.28,0.09 -0.28,0.25 v 0.28 h 1.01 0.67 1.01 v -0.28 c 0,-0.16 -0.1,-0.24 -0.28,-0.25 z m 15.06,-6.43 h -0.51 -1.4 v 0.27 c 0,0.15 0.09,0.23 0.28,0.25 h 0.08 c 0.03,0 0.06,0.01 0.1,0.01 h 0.21 c 0.1,0 0.21,0.02 0.33,0.02 l -2.14,5.11 c -0.04,0.09 -0.08,0.21 -0.11,0.3 -0.03,0.1 -0.04,0.2 -0.07,0.3 -0.01,-0.03 -0.01,-0.07 -0.03,-0.14 -0.01,-0.07 -0.03,-0.13 -0.04,-0.16 -0.03,-0.09 -0.06,-0.19 -0.1,-0.3 l -2.14,-5.11 c 0.15,0 0.31,-0.02 0.42,-0.02 0.11,0 0.2,-0.01 0.22,-0.01 h 0.09 c 0.18,-0.02 0.28,-0.1 0.28,-0.25 V 6.86 h -1.42 -0.51 -0.51 v 0.27 c 0,0.15 0.09,0.23 0.27,0.25 0,0 0.15,0 0.46,0.01 l 2.72,6.43 h 0.58 l 2.71,-6.43 h 0.26 c 0.09,0 0.13,-0.01 0.16,-0.01 h 0.07 c 0.18,-0.02 0.28,-0.1 0.28,-0.25 V 6.86 Z m 11.44,-0.13 c -0.49,0 -0.94,0.1 -1.33,0.27 -0.39,0.17 -0.71,0.41 -0.98,0.71 -0.26,0.31 -0.47,0.68 -0.61,1.1 -0.14,0.42 -0.23,0.88 -0.23,1.38 0,0.59 0.09,1.12 0.24,1.58 0.15,0.47 0.36,0.84 0.64,1.17 0.28,0.32 0.62,0.56 1.01,0.72 0.39,0.17 0.83,0.24 1.3,0.24 0.27,0 0.54,-0.01 0.79,-0.07 0.25,-0.05 0.5,-0.12 0.73,-0.21 0.22,-0.08 0.43,-0.18 0.61,-0.31 0.18,-0.12 0.34,-0.25 0.45,-0.39 l -0.18,-0.22 c -0.03,-0.04 -0.09,-0.07 -0.14,-0.07 -0.04,0 -0.13,0.03 -0.23,0.11 -0.09,0.08 -0.23,0.17 -0.42,0.27 -0.16,0.09 -0.39,0.16 -0.64,0.25 -0.25,0.08 -0.56,0.12 -0.91,0.12 -0.39,0 -0.74,-0.07 -1.06,-0.21 -0.33,-0.14 -0.59,-0.33 -0.82,-0.6 -0.22,-0.26 -0.39,-0.6 -0.51,-0.99 -0.13,-0.39 -0.19,-0.87 -0.19,-1.39 v -0.12 h 5.03 c 0.07,0 0.11,-0.02 0.14,-0.06 0.03,-0.04 0.06,-0.11 0.06,-0.21 0,-0.49 -0.07,-0.92 -0.21,-1.3 -0.14,-0.38 -0.33,-0.72 -0.58,-0.97 -0.24,-0.25 -0.53,-0.45 -0.87,-0.59 -0.33,-0.14 -0.7,-0.21 -1.09,-0.21 z m 0.02,0.51 c 0.32,0 0.6,0.05 0.86,0.17 0.27,0.11 0.49,0.26 0.68,0.47 0.18,0.21 0.33,0.45 0.43,0.74 0.1,0.3 0.15,0.63 0.15,1.01 h -4.59 c 0.04,-0.36 0.13,-0.7 0.25,-0.99 0.13,-0.3 0.3,-0.55 0.51,-0.76 0.21,-0.21 0.46,-0.36 0.74,-0.47 0.28,-0.12 0.6,-0.17 0.97,-0.17 z m 17.55,6.3 c 0,-0.16 -0.08,-0.24 -0.26,-0.25 h -0.07 -0.1 c -0.04,0 -0.11,-0.02 -0.2,-0.02 h -0.31 V 3.63 h -0.65 -1.01 v 0.28 c 0,0.15 0.1,0.23 0.28,0.25 h 0.07 c 0.03,0 0.05,0.01 0.1,0.01 h 0.22 c 0.1,0 0.21,0.02 0.34,0.02 v 3.57 c -0.26,-0.34 -0.55,-0.59 -0.9,-0.76 -0.35,-0.18 -0.76,-0.27 -1.23,-0.27 -0.49,0 -0.93,0.1 -1.3,0.28 -0.38,0.19 -0.69,0.45 -0.96,0.77 -0.26,0.33 -0.44,0.72 -0.58,1.15 -0.14,0.44 -0.2,0.91 -0.2,1.42 0,1.19 0.24,2.08 0.71,2.67 0.48,0.59 1.15,0.88 2.01,0.88 0.51,0 0.98,-0.11 1.4,-0.36 0.42,-0.25 0.77,-0.59 1.07,-1.01 l 0.07,1.11 c 0.02,0.12 0.09,0.18 0.2,0.18 h 0.36 0.94 v -0.21 z m -1.59,-1.53 c -0.3,0.42 -0.63,0.76 -1.01,1 -0.38,0.23 -0.79,0.36 -1.25,0.36 -0.71,0 -1.27,-0.24 -1.65,-0.73 -0.38,-0.49 -0.57,-1.26 -0.57,-2.29 0,-0.47 0.04,-0.87 0.15,-1.25 0.11,-0.38 0.27,-0.71 0.48,-0.98 0.21,-0.27 0.46,-0.49 0.77,-0.64 0.3,-0.16 0.67,-0.23 1.07,-0.23 0.41,0 0.79,0.09 1.11,0.25 0.32,0.17 0.63,0.45 0.9,0.84 z"
            id="path20"/>
  </g>
</svg>
