<?xml version="1.0" encoding="UTF-8" standalone="no"?>
<svg
   xmlns:dc="http://purl.org/dc/elements/1.1/"
   xmlns:cc="http://creativecommons.org/ns#"
   xmlns:rdf="http://www.w3.org/1999/02/22-rdf-syntax-ns#"
   xmlns:svg="http://www.w3.org/2000/svg"
   xmlns="http://www.w3.org/2000/svg"
   xmlns:sodipodi="http://sodipodi.sourceforge.net/DTD/sodipodi-0.dtd"
   xmlns:inkscape="http://www.inkscape.org/namespaces/inkscape"
   data-v-fde0c5aa=""
   viewBox="0 0 219.99997 68.044545"
   class="iconLeft"
   version="1.1"
   id="svg18"
   sodipodi:docname="default-nomargin.svg"
   width="58.208336mm"
   height="18.003452mm"
   inkscape:version="1.0.1 (3bc2e813f5, 2020-09-07)">
  <metadata
     id="metadata22">
    <rdf:RDF>
      <cc:Work
         rdf:about="">
        <dc:format>image/svg+xml</dc:format>
        <dc:type
           rdf:resource="http://purl.org/dc/dcmitype/StillImage" />
        <dc:title></dc:title>
      </cc:Work>
    </rdf:RDF>
  </metadata>
  <sodipodi:namedview
     pagecolor="#ffffff"
     bordercolor="#666666"
     borderopacity="1"
     objecttolerance="10"
     gridtolerance="10"
     guidetolerance="10"
     inkscape:pageopacity="0"
     inkscape:pageshadow="2"
     inkscape:window-width="1920"
     inkscape:window-height="1009"
     id="namedview20"
     showgrid="false"
     units="mm"
     width="209mm"
     fit-margin-top="0"
     fit-margin-left="0"
     fit-margin-right="0"
     fit-margin-bottom="0"
     inkscape:zoom="2.8066667"
     inkscape:cx="110"
     inkscape:cy="49.084632"
     inkscape:window-x="1912"
     inkscape:window-y="-8"
     inkscape:window-maximized="1"
     inkscape:current-layer="svg18" />
  <!---->
  <defs
     data-v-fde0c5aa=""
     id="defs2">
    <!---->
  </defs>
  <defs
     data-v-fde0c5aa=""
     id="defs6">
    <!---->
  </defs>
  <g
     data-v-fde0c5aa=""
     id="824a8de9-4b67-4fa2-96cb-30238c47e4c2"
     fill="#90caf9"
     transform="matrix(3.2195201,0,0,3.2195201,96.402635,2.8734206)">
    <path
       d="m 3.19,4.19 v 0 0 Q 2.6,4.83 2.6,5.82 v 0 0 Q 2.6,6.8 3.11,7 v 0 0 q 0.12,0.04 0.12,0.18 v 0 0 q 0,0.42 -0.28,0.71 v 0 0 Q 2.67,8.18 2.27,8.23 v 0 0 q -0.13,0 -0.13,0.1 v 0 0 Q 2.13,8.48 2.13,8.77 v 0 0 q 0,0.29 0.03,0.63 v 0 0 q 0.02,0.34 0.13,0.81 v 0 0 q 0.1,0.47 0.28,0.82 v 0 0 q 0.17,0.34 0.5,0.58 v 0 0 q 0.33,0.25 0.77,0.25 v 0 0 q 0.43,0 0.79,-0.25 v 0 0 Q 4.31,10.88 3.96,10.57 v 0 l -0.11,-0.1 v 0 Q 3.81,10.42 3.81,10.36 v 0 0 q 0,-0.15 0.28,-0.15 v 0 0 q 0.57,0 1.17,0.6 v 0 0 Q 5.8,9.72 5.8,7.97 v 0 0 Q 5.8,5.14 4.86,4.21 v 0 0 Q 4.45,3.82 3.99,3.82 v 0 0 q -0.46,0 -0.8,0.37 z M 1.51,5.07 v 0 L 1.57,4.98 v 0 Q 1.71,4.34 2.02,3.87 v 0 0 Q 2.34,3.4 2.65,3.17 v 0 0 Q 2.97,2.94 3.36,2.81 v 0 0 Q 3.88,2.65 4.27,2.65 v 0 0 q 0.94,0 1.62,0.43 v 0 0 q 0.68,0.43 1.03,1.18 v 0 0 q 0.64,1.41 0.64,3.2 v 0 0 q 0,3.01 -1.43,4.44 v 0 0 q 0.66,0.73 1.29,0.73 v 0 0 q 0.18,0 0.18,0.12 v 0 0 q 0,0.23 -0.52,0.49 v 0 0 Q 6.57,13.5 5.98,13.5 v 0 L 5.53,13.45 v 0 Q 5.35,13.43 5.24,13.32 v 0 0 Q 5.12,13.22 5.1,13.03 v 0 L 5,12.64 v 0 q -0.66,0.27 -1.35,0.27 v 0 0 q -1.75,0 -2.57,-1.2 v 0 0 Q 0.25,10.51 0.25,8.68 v 0 0 q 0,-1.06 0.18,-1.95 v 0 0 Q 0.62,5.84 0.81,5.47 v 0 L 0.99,5.11 v 0 Q 1.05,4.98 1.18,4.98 v 0 0 Q 1.3,4.98 1.36,5 v 0 0 q 0.07,0.03 0.1,0.05 v 0 0 Q 1.5,5.07 1.51,5.07 Z m 9.96,1.73 v 0 0 q 0.05,0 0.21,0.12 v 0 0 Q 11.83,7.03 12,7.03 v 0 h 0.01 v 0 q 0.48,0 0.76,-0.38 v 0 0 q 0.28,-0.38 0.31,-0.76 v 0 l 0.04,-0.37 v 0 q 0,-0.54 -0.16,-0.92 v 0 0 Q 12.8,4.21 12.59,4.03 v 0 0 Q 12.38,3.84 12.1,3.74 v 0 0 Q 11.75,3.6 11.36,3.6 v 0 0 q -0.38,0 -0.62,0.07 v 0 0 Q 10.5,3.75 10.47,3.82 v 0 l -0.01,0.09 v 0 Q 10.33,5.8 10.33,7.29 v 0 0 q 0,1.49 0.05,2.57 v 0 0 q 0.05,1.07 0.1,1.66 v 0 0 q 0.05,0.58 0.05,0.63 v 0 0 q 0,0.35 -0.62,0.56 v 0 0 Q 9.3,12.92 8.69,12.92 v 0 0 q -0.28,0 -0.28,-0.14 v 0 0 q 0,-0.04 0.05,-0.19 v 0 0 Q 8.72,11.97 8.72,6.86 v 0 0 q 0,-3.01 -0.4,-3.44 v 0 0 Q 8.23,3.33 8.23,3.24 v 0 0 q 0,-0.09 0.21,-0.2 v 0 0 Q 8.64,2.93 9.58,2.78 v 0 0 q 0.93,-0.15 1.98,-0.15 v 0 0 q 1.66,0 2.49,0.9 v 0 0 q 0.83,0.89 0.83,2.13 v 0 0 q 0,1.24 -0.68,2.15 v 0 0 q -0.68,0.91 -1.77,0.91 v 0 0 q -0.35,0 -0.7,-0.12 v 0 0 q -0.7,-0.26 -0.7,-1.05 v 0 0 q 0,-0.17 0.11,-0.46 v 0 0 Q 11.26,6.8 11.47,6.8 Z m 5.64,-2.14 v 0 L 17.02,9.8 v 0 q 0,2.41 0.16,2.88 v 0 0 q 0.04,0.09 0.04,0.17 v 0 0 q 0,0.17 -0.41,0.17 v 0 0 q -0.4,0 -0.9,-0.2 v 0 0 q -0.5,-0.21 -0.5,-0.53 v 0 0 q 0.28,-1.96 0.28,-5.23 v 0 L 15.64,4.91 v 0 Q 15.61,4.52 15.48,4.24 v 0 0 Q 15.34,3.96 15.22,3.88 v 0 L 15.11,3.81 v 0 q -0.1,-0.06 -0.1,-0.13 v 0 0 q 0,-0.19 0.61,-0.48 v 0 0 Q 16.23,2.91 16.8,2.91 v 0 0 q 0.22,0 0.25,0.16 v 0 0 q 0.06,0.36 0.06,1.59 z m 5.63,3.81 v 0 l -0.03,1.79 v 0 q 0,1.86 0.4,2.24 v 0 0 q 0.06,0.06 0.06,0.13 v 0 0 q 0,0.21 -0.9,0.21 v 0 0 q -0.91,0 -0.96,-0.53 v 0 0 q -0.02,-0.13 -0.02,-0.52 v 0 l 0.06,-2.24 v 0 q 0,-0.1 -0.11,-0.1 v 0 0 q -0.67,0 -1.26,0.38 v 0 0 q -0.59,0.38 -0.59,0.96 v 0 0 q 0,0.31 0.17,0.52 v 0 0 q 0.17,0.21 0.41,0.21 v 0 0 q 0.25,0 0.41,-0.1 v 0 0 q 0.16,-0.09 0.19,-0.11 v 0 0 q 0.23,0.03 0.23,0.5 v 0 0 q 0,0.47 -0.43,0.75 v 0 0 q -0.43,0.29 -0.91,0.29 v 0 0 q -0.48,0 -0.82,-0.17 v 0 0 q -0.34,-0.16 -0.5,-0.37 v 0 0 Q 17.99,12.1 17.89,11.83 v 0 0 q -0.1,-0.32 -0.1,-0.56 v 0 0 q 0,-0.98 0.62,-1.57 v 0 0 q 0.62,-0.59 1.58,-0.84 v 0 0 Q 21.27,8.61 21.32,8.4 v 0 0 q 0.04,-0.15 0.04,-0.52 v 0 0 q 0,-0.74 -0.75,-0.74 v 0 0 q -0.32,0 -0.58,0.2 v 0 0 q -0.25,0.21 -0.25,0.51 v 0 l 0.09,0.34 v 0 q -0.03,0.24 -0.51,0.28 v 0 l -0.15,0.01 v 0 q -0.42,0 -0.67,-0.21 v 0 0 Q 18.3,8.06 18.3,7.71 v 0 0 q 0,-0.22 0.15,-0.49 v 0 0 q 0.14,-0.28 0.37,-0.44 v 0 0 q 0.22,-0.17 0.69,-0.31 v 0 0 q 0.47,-0.13 0.9,-0.13 v 0 0 q 0.44,0 0.67,0.03 v 0 0 q 0.24,0.03 0.65,0.13 v 0 0 q 0.42,0.11 0.69,0.4 v 0 0 q 0.27,0.3 0.29,0.62 v 0 0 q 0.03,0.33 0.03,0.95 z m 3.33,8.08 v 0 0 q 0,0.17 -0.17,0.17 v 0 h -0.01 v 0 q -0.47,0 -1.05,-0.33 v 0 0 q -0.58,-0.32 -0.58,-0.74 v 0 0 q 0,-0.42 0.53,-1.46 v 0 0 q 0.54,-1.04 0.54,-1.39 v 0 0 q 0,-0.38 -0.37,-1.36 v 0 0 Q 24.5,10.16 24.23,9.37 v 0 0 Q 23.95,8.57 23.64,7.96 v 0 0 Q 23.32,7.35 23.18,7.24 v 0 l -0.14,-0.1 v 0 Q 22.89,7.06 22.89,6.96 v 0 0 q 0,-0.2 0.61,-0.4 v 0 0 q 0.61,-0.2 1.07,-0.2 v 0 0 q 0.21,0 0.35,0.33 v 0 0 q 0.25,0.66 0.55,1.82 v 0 0 q 0.71,2.38 0.89,2.38 v 0 0 q 0.13,0 0.51,-0.98 v 0 0 q 0.39,-0.98 0.39,-1.58 v 0 0 q 0,-1.05 -0.62,-1.23 v 0 0 Q 26.5,7.07 26.5,6.96 v 0 0 q 0,-0.25 0.66,-0.49 v 0 0 q 0.66,-0.23 1.19,-0.23 v 0 0 q 0.46,0 0.46,0.61 v 0 0 q 0,0.46 -0.19,1.07 v 0 0 q -0.2,0.62 -0.37,0.98 v 0 0 q -0.17,0.35 -0.83,1.65 v 0 0 q -0.67,1.29 -1.1,2.27 v 0 0 q -0.48,1.18 -0.48,2.4 v 0 0 q 0,0.64 0.12,0.96 v 0 0 q 0.11,0.33 0.11,0.37 z m 4.3,-7.44 v 0 l 0.01,0.35 v 0 q 0,0.09 0.11,0.09 v 0 0 q 0.45,-0.04 0.79,-0.23 v 0 0 q 0.33,-0.19 0.5,-0.43 v 0 0 q 0.34,-0.52 0.36,-0.9 v 0 l 0.02,-0.16 v 0 q 0,-0.76 -0.6,-0.76 v 0 0 q -0.45,0 -0.73,0.39 v 0 0 q -0.46,0.62 -0.46,1.65 z m 3.05,1.87 v 0 0 q 0,0.53 -0.22,0.93 v 0 0 q -0.22,0.4 -0.49,0.58 v 0 0 q -0.27,0.19 -0.64,0.31 v 0 0 q -0.46,0.14 -0.88,0.14 v 0 0 q -1.17,0 -1.73,-0.89 v 0 0 Q 28.9,11.17 28.9,9.81 v 0 0 q 0,-1.37 0.69,-2.43 v 0 0 q 0.69,-1.07 2.08,-1.07 v 0 0 q 1.26,0 1.71,0.89 v 0 0 q 0.18,0.33 0.18,0.63 v 0 0 q 0,0.3 -0.03,0.48 v 0 0 q -0.03,0.17 -0.2,0.52 v 0 0 q -0.16,0.35 -0.44,0.63 v 0 0 Q 32.61,9.74 32,10 v 0 0 q -0.6,0.25 -1.41,0.33 v 0 0 q -0.11,0 -0.11,0.1 v 0 0 q 0,0.13 0.09,0.37 v 0 0 q 0.09,0.25 0.2,0.41 v 0 0 q 0.31,0.4 0.91,0.4 v 0 0 q 0.6,0 1.02,-0.4 v 0 0 Q 32.93,11 33.07,10.7 v 0 0 q 0.05,-0.12 0.15,-0.12 v 0 0 q 0.09,0 0.14,0.16 v 0 0 q 0.06,0.15 0.06,0.24 z m 4.97,-3.13 -0.07,1.07 0.05,0.49 v 0 q 0,0.26 -0.5,0.26 v 0 0 q -1.02,0 -1.02,-0.77 v 0 0 q 0,-0.18 0.1,-0.5 v 0 0 q 0.09,-0.32 0.09,-0.56 v 0 0 q 0,-0.24 -0.14,-0.41 v 0 0 Q 36.76,7.25 36.5,7.25 v 0 0 q -0.27,0 -0.46,0.19 v 0 0 q -0.19,0.19 -0.23,0.39 v 0 l -0.05,0.19 v 0 q -0.09,0.44 -0.09,1.45 v 0 0 q 0,1.02 0.03,1.6 v 0 0 q 0.03,0.58 0.06,0.8 v 0 0 q 0.02,0.21 0.02,0.25 v 0 0 q 0,0.35 -0.43,0.57 v 0 0 q -0.43,0.22 -0.87,0.22 v 0 0 q -0.43,0 -0.43,-0.18 v 0 l 0.07,-0.44 v 0 q 0.19,-1.22 0.19,-3.18 v 0 0 q 0,-1.96 -0.14,-2.66 v 0 0 q 0,-0.16 0.3,-0.16 v 0 0 q 0.75,0 1.01,0.51 v 0 0 q 0.01,0.06 0.04,0.06 v 0 0 q 0.04,0 0.19,-0.13 v 0 0 q 0.47,-0.37 1.1,-0.37 v 0 0 q 0.39,0 0.78,0.15 v 0 0 q 0.8,0.32 0.8,1.34 z"
       id="path8" />
  </g>
  <defs
     data-v-fde0c5aa=""
     id="defs11">
    <!---->
  </defs>
  <g
     data-v-fde0c5aa=""
     id="5a3e0c7f-31ac-483e-936e-096c905e46a9"
     stroke="none"
     fill="#90caf9"
     transform="matrix(0.1877842,0,0,0.1877842,-5.9690964,-14.050389)">
    <path
       d="m 480.214,260.561 c 0,-28.229 -13.894,-51.971 -37.48,-64.654 0.587,-3.423 0.881,-6.727 0.881,-9.985 0,-38.801 -34.69,-70.362 -77.309,-70.362 -3.157,0 -6.332,0.174 -9.471,0.532 -11.343,-24.925 -36.25,-41.27 -63.8,-41.27 -13.913,0 -27.467,4.24 -39.233,12.261 -11.949,-6.488 -25.467,-9.893 -39.398,-9.893 -29.275,0 -55.697,14.904 -68.829,38.388 a 33.102,33.102 0 0 0 -0.954,-0.018 c -42.628,0 -77.309,31.561 -77.309,70.362 0,5.543 0.808,11.095 2.469,16.84 -23.604,13.426 -37.994,37.416 -37.994,64.039 0,40.723 33.952,73.811 75.932,74.541 v 52.977 c 0,23.622 19.217,42.858 42.849,42.858 h 219.887 c 23.641,0 42.876,-19.236 42.876,-42.858 v -54.218 c 16.068,-1.632 30.81,-7.856 42.527,-19.383 15.472,-15.234 24.356,-37.168 24.356,-60.157 z M 370.454,422.126 H 150.567 c -15.335,0 -27.816,-12.463 -27.816,-27.807 V 273.574 c 0,-15.344 12.481,-27.825 27.816,-27.825 h 219.887 c 15.344,0 27.825,12.481 27.825,27.825 v 57.659 c -0.185,0.629 -0.41,1.244 -0.422,1.928 -0.01,0.801 0.203,1.535 0.422,2.261 v 58.896 c 0,15.346 -12.481,27.808 -27.825,27.808 z m 42.876,-96.98 v -51.572 c 0,-23.631 -19.236,-42.858 -42.876,-42.858 H 150.567 c -23.631,0 -42.849,19.226 -42.849,42.858 v 52.719 c -33.692,-0.72 -60.9,-27.06 -60.9,-59.491 0,-22.897 13.527,-43.399 35.314,-53.503 a 7.52,7.52 0 0 0 3.845,-9.535 c -2.441,-6.305 -3.634,-12.141 -3.634,-17.841 0,-30.505 27.936,-55.33 62.277,-55.33 0.789,0 1.551,0.119 2.322,0.211 l 2.46,0.257 c 3.267,0.285 6.066,-1.514 7.369,-4.359 9.627,-20.942 32.249,-34.479 57.633,-34.479 12.857,0 25.256,3.533 35.855,10.205 a 7.498,7.498 0 0 0 8.663,-0.459 c 0.89,-0.697 1.79,-1.377 2.707,-2.019 0.018,0 0.028,-0.009 0.037,-0.018 9.407,-6.589 20.245,-10.077 31.368,-10.077 23.273,0 44.161,14.885 51.962,37.039 1.211,3.506 4.772,5.58 8.48,4.891 a 69.686,69.686 0 0 1 12.83,-1.193 c 34.341,0 62.258,24.824 62.258,55.33 0,3.845 -0.551,7.874 -1.689,12.298 a 7.519,7.519 0 0 0 4.277,8.755 c 21.291,9.324 34.011,29.358 34.011,53.586 0,18.712 -7.415,37.195 -19.86,49.438 -8.846,8.708 -19.838,13.713 -31.973,15.147 z"
       id="path13" />
    <path
       d="m 237.035,272.427 c -2.23,-1.835 -5.35,-2.212 -7.984,-0.973 a 7.51,7.51 0 0 0 -4.295,6.791 v 111.412 a 7.492,7.492 0 0 0 4.231,6.754 7.436,7.436 0 0 0 3.285,0.771 7.502,7.502 0 0 0 4.644,-1.615 l 69.444,-54.513 a 7.538,7.538 0 0 0 2.882,-5.837 7.552,7.552 0 0 0 -2.753,-5.892 z m 2.753,101.776 v -80.081 l 49.906,40.894 z"
       id="path15" />
  </g>
  <!---->
</svg>
